<?xml version="1.0" standalone="no"?>
<!DOCTYPE svg PUBLIC "-//W3C//DTD SVG 20010904//EN"
 "http://www.w3.org/TR/2001/REC-SVG-20010904/DTD/svg10.dtd">
<svg version="1.0" xmlns="http://www.w3.org/2000/svg"
 width="1144.000000pt" height="1144.000000pt" viewBox="0 0 1144.000000 1144.000000"
 preserveAspectRatio="xMidYMid meet">
<metadata>
Created by potrace 1.11, written by Peter Selinger 2001-2013
</metadata>
<g transform="translate(0.000000,1144.000000) scale(0.100000,-0.100000)"
fill="#000000" stroke="none">
<path d="M535 8365 l0 -1256 25 -14 c14 -8 40 -22 58 -31 17 -10 32 -21 32
-26 0 -4 4 -8 9 -8 8 0 135 -73 229 -132 15 -9 38 -23 52 -31 14 -7 111 -66
217 -130 105 -64 195 -117 198 -117 3 0 11 -5 18 -11 7 -6 29 -20 50 -32 38
-22 543 -326 1061 -639 153 -92 280 -168 282 -168 2 0 30 -17 61 -37 32 -21
73 -46 92 -56 19 -10 52 -31 75 -45 23 -15 50 -32 61 -38 11 -6 85 -51 165
-99 80 -49 154 -93 165 -99 75 -41 351 -211 353 -218 2 -4 12 -8 22 -8 10 0
20 -4 22 -8 2 -6 176 -113 319 -197 106 -62 134 -80 137 -87 2 -4 9 -8 15 -8
7 0 47 -23 90 -50 43 -28 80 -50 83 -50 3 0 29 -15 57 -34 29 -19 64 -40 80
-47 15 -7 27 -16 27 -20 0 -4 11 -10 25 -13 14 -4 25 -11 25 -16 0 -6 4 -10
10 -10 5 0 51 -25 101 -56 71 -43 94 -52 101 -42 4 7 18 29 30 48 12 19 30 44
40 54 10 11 18 23 18 28 0 10 63 102 73 106 4 2 7 10 7 18 0 8 5 14 10 14 6 0
10 4 10 9 0 11 222 345 232 349 4 2 8 8 8 13 0 5 37 64 82 131 46 68 87 131
93 140 19 33 174 263 184 275 6 7 11 16 11 20 0 4 9 19 20 33 11 14 63 90 115
170 52 80 98 150 102 155 39 49 43 66 43 168 l0 104 -47 29 c-127 78 -262 158
-283 169 -11 5 -20 13 -20 17 0 5 -5 8 -10 8 -6 0 -29 12 -53 27 -23 15 -51
32 -62 38 -43 24 -70 40 -75 45 -9 9 -45 30 -76 45 -17 7 -36 21 -43 29 -7 9
-17 14 -21 11 -5 -3 -11 -1 -14 4 -6 9 -301 189 -648 395 -45 27 -88 55 -96
62 -7 8 -18 14 -24 14 -5 0 -24 10 -41 22 -18 13 -34 23 -37 23 -5 1 -40 22
-101 62 -19 12 -40 23 -46 23 -6 0 -13 4 -15 8 -1 4 -119 77 -260 162 -142 85
-288 174 -325 197 -38 23 -75 46 -83 50 -44 23 -115 68 -118 75 -2 4 -8 8 -12
8 -10 0 -130 70 -217 126 -28 19 -56 34 -62 34 -6 0 -11 5 -11 10 0 6 -4 10
-9 10 -4 0 -108 61 -231 135 -122 74 -226 135 -230 135 -5 0 -15 6 -22 13 -19
18 -116 77 -128 77 -6 0 -10 5 -10 10 0 6 -7 10 -15 10 -8 0 -15 5 -15 10 0 6
-5 10 -10 10 -6 0 -47 23 -91 50 -44 28 -85 50 -90 50 -5 0 -9 5 -9 10 0 6 -7
10 -15 10 -8 0 -15 5 -15 10 0 6 -6 10 -12 10 -7 1 -67 34 -133 75 -139 85
-319 193 -355 213 -14 7 -32 19 -40 26 -8 7 -22 16 -30 20 -8 3 -28 14 -45 25
-207 127 -399 241 -406 241 -5 0 -9 5 -9 10 0 6 -4 10 -9 10 -6 0 -53 27 -106
60 -53 33 -98 60 -101 60 -3 0 -25 14 -49 30 -24 17 -46 30 -50 30 -4 0 -26
14 -50 30 -24 17 -48 30 -53 30 -6 0 -12 3 -14 8 -4 9 -176 112 -188 112 -4 0
-13 7 -20 15 -7 8 -18 15 -24 15 -9 0 -12 -303 -11 -1255z"/>
<path d="M11388 9597 c-21 -12 -85 -51 -144 -87 -59 -36 -112 -67 -118 -69 -5
-2 -15 -8 -21 -13 -30 -25 -84 -56 -89 -50 -3 3 -6 1 -6 -5 0 -5 -19 -19 -42
-32 -24 -12 -55 -30 -70 -39 -81 -51 -195 -117 -205 -120 -7 -2 -13 -8 -13
-13 0 -5 -6 -9 -14 -9 -8 0 -21 -6 -28 -13 -11 -10 -89 -58 -239 -147 -86 -51
-175 -105 -179 -110 -3 -3 -25 -16 -50 -29 -25 -14 -47 -27 -50 -30 -3 -3 -25
-17 -50 -30 -25 -14 -56 -32 -70 -41 -36 -24 -82 -53 -105 -66 -46 -24 -70
-39 -75 -45 -3 -3 -17 -12 -32 -20 -30 -16 -204 -119 -258 -154 -102 -65 -196
-120 -202 -117 -5 1 -8 -2 -8 -8 0 -5 -6 -10 -14 -10 -8 0 -16 -3 -18 -7 -3
-8 -105 -73 -114 -73 -2 0 -35 -20 -74 -45 -39 -25 -74 -45 -79 -45 -5 0 -14
-6 -20 -14 -7 -8 -26 -22 -44 -31 -34 -17 -37 -19 -185 -109 -51 -31 -97 -56
-102 -56 -6 0 -10 -4 -10 -8 0 -5 -18 -17 -40 -27 -22 -10 -40 -22 -40 -27 0
-4 -4 -8 -9 -8 -5 0 -125 -70 -267 -157 -143 -86 -268 -161 -279 -167 -11 -6
-39 -24 -62 -39 -24 -15 -47 -27 -52 -27 -5 0 -11 -3 -13 -7 -1 -5 -106 -70
-233 -146 -448 -269 -660 -397 -675 -407 -8 -5 -58 -35 -110 -66 -52 -32 -113
-69 -135 -83 -22 -14 -42 -26 -45 -26 -3 -1 -30 -16 -60 -35 -79 -50 -86 -54
-183 -112 -49 -29 -103 -62 -121 -73 -18 -11 -89 -53 -157 -94 -68 -41 -126
-76 -129 -78 -2 -2 -4 -51 -5 -109 l-1 -105 58 -87 c31 -48 62 -92 67 -99 6
-7 11 -15 11 -18 0 -4 11 -21 25 -39 14 -18 25 -38 25 -44 0 -7 3 -12 8 -12 4
0 16 -16 26 -35 11 -19 22 -35 26 -35 4 0 10 -8 14 -17 5 -18 26 -53 36 -63
14 -13 110 -162 110 -170 0 -6 5 -10 10 -10 6 0 10 -7 10 -15 0 -8 5 -15 10
-15 6 0 10 -6 10 -14 0 -7 7 -19 15 -26 8 -7 29 -35 46 -64 31 -52 71 -112 89
-133 5 -7 10 -17 10 -23 0 -5 5 -10 10 -10 6 0 10 -6 10 -13 0 -8 9 -22 20
-32 11 -10 20 -22 20 -27 0 -4 16 -30 35 -57 19 -26 35 -53 35 -59 0 -6 4 -12
8 -14 8 -3 183 -263 191 -283 2 -5 7 -12 10 -15 3 -3 37 -51 74 -108 l68 -103
37 22 c20 12 57 34 82 48 25 14 53 32 63 41 10 8 21 14 25 13 4 -1 14 4 22 11
8 7 89 57 180 111 91 54 167 102 168 107 2 4 12 8 23 8 10 0 19 4 19 9 0 5 8
11 18 14 9 4 49 27 87 52 39 25 77 48 85 52 8 3 38 20 65 37 28 17 62 38 78
45 15 8 27 18 27 23 0 4 6 8 13 8 7 0 36 16 66 35 29 19 55 35 58 35 2 0 23
13 46 28 23 15 59 36 80 47 20 11 37 24 37 29 0 5 3 6 7 3 3 -4 13 -1 22 7 9
7 117 73 241 147 124 74 227 137 230 141 3 4 17 12 30 17 14 6 54 29 89 51 34
22 67 40 72 40 5 0 9 4 9 9 0 5 8 11 18 14 18 6 74 38 82 48 3 3 18 12 33 20
32 16 390 231 397 239 3 3 17 12 32 20 81 44 263 155 266 162 2 4 8 8 13 8 6
0 34 15 63 33 28 17 61 37 72 43 10 7 154 93 319 193 165 100 314 189 330 199
17 9 32 19 35 22 3 3 19 12 35 21 50 26 79 43 93 57 7 6 19 12 27 12 7 0 15 3
17 8 4 10 275 172 288 172 5 0 10 4 10 9 0 5 10 13 23 17 12 4 24 10 27 13 3
4 38 26 78 50 l72 43 0 1254 c0 690 -3 1254 -7 1254 -5 -1 -25 -11 -45 -23z"/>
<path d="M5920 5943 c-36 -54 -68 -99 -72 -101 -5 -2 -8 -10 -8 -17 0 -8 -6
-20 -13 -27 -7 -7 -28 -38 -47 -68 -19 -31 -52 -80 -73 -110 -90 -131 -287
-435 -287 -442 0 -4 -4 -8 -9 -8 -5 0 -11 -6 -13 -12 -2 -7 -83 -134 -180
-281 -98 -147 -178 -272 -178 -277 0 -6 -4 -10 -8 -10 -5 0 -15 -12 -23 -27
-8 -16 -16 -30 -19 -33 -14 -14 -50 -70 -50 -79 0 -5 -3 -11 -7 -13 -5 -1 -27
-32 -49 -67 l-42 -63 35 -92 c19 -50 38 -100 43 -111 5 -11 23 -58 40 -105 17
-47 35 -94 39 -105 5 -11 19 -47 33 -80 l24 -60 918 0 c804 0 919 2 930 15 7
8 21 38 31 65 10 28 22 55 27 61 5 7 10 20 13 30 3 16 22 63 80 199 40 94 70
171 70 181 0 7 -61 103 -135 215 -74 112 -137 209 -140 214 -14 28 -145 220
-152 223 -4 2 -8 8 -8 13 0 11 -172 273 -182 277 -5 2 -8 7 -8 12 0 4 -34 58
-75 119 -41 62 -75 116 -75 121 0 6 -4 10 -10 10 -5 0 -10 7 -10 15 0 8 -4 15
-10 15 -5 0 -10 6 -10 13 0 8 -9 22 -20 32 -11 10 -20 22 -20 27 0 5 -11 24
-25 42 -14 18 -25 36 -25 39 0 4 -7 15 -16 25 -22 25 -104 152 -104 162 0 5
-3 10 -8 12 -4 2 -29 36 -55 76 -26 39 -49 72 -50 72 -1 0 -32 -44 -67 -97z"/>
<path d="M535 3253 l0 -1058 5453 -1 5452 -1 0 1059 0 1058 -2097 -2 -2097 -3
-29 -70 c-16 -38 -33 -79 -38 -90 -4 -11 -31 -78 -59 -150 -29 -71 -58 -144
-66 -162 -8 -17 -14 -34 -14 -38 0 -3 -11 -30 -24 -58 -13 -29 -26 -62 -30
-73 l-7 -22 -1001 2 -1002 1 -53 140 c-29 77 -58 156 -64 175 -7 19 -20 54
-31 77 -10 24 -18 47 -18 52 0 5 -8 26 -17 47 -9 22 -18 46 -19 54 -2 8 -7 23
-12 35 -6 11 -15 35 -22 53 l-12 32 -2097 0 -2097 0 1 -1057z"/>
</g>
</svg>
